# xmcd
#
# Track frame offsets: 
#        150
#        25005
#        44809
#        72430
#        94014
#        123862
#        141671
#        166130
#        196300
#        223234
#        249651
#        270301
#
# Disc length: 3919 seconds
#
# Revision: 0
# Processed by: cddbd v1.5.2PL0 Copyright (c) Steve Scherf et al.
# Submitted via: ExactAudioCopy v1.3
#
DISCID=b40f4d0c
DTITLE=Joe Bonamassa - Redemption
DYEAR=2018
DGENRE=Blues
TTITLE0=Evil Mama
TTITLE1=King Bee Shakedown
TTITLE2=Molly O'
TTITLE3=Deep In The Blues Again
TTITLE4=Self-Inflicted Wounds
TTITLE5=Pick Up The Pieces
TTITLE6=The Ghost Of Macon Jones
TTITLE7=Just 'Cos You Can Don't Mean You Should
TTITLE8=Redemption
TTITLE9=I've Got Some Mind Over What Matters
TTITLE10=Stronger Now In Broken Places
TTITLE11=Love Is A Gamble
EXTD=
EXTT0=
EXTT1=
EXTT2=
EXTT3=
EXTT4=
EXTT5=
EXTT6=
EXTT7=
EXTT8=
EXTT9=
EXTT10=
EXTT11=
PLAYORDER=
